<svg width="170" height="248" viewBox="0 0 170 248" fill="none" xmlns="http://www.w3.org/2000/svg">
<path fill-rule="evenodd" clip-rule="evenodd" d="M170 246.767L164.007 78.3828C163.994 76.9644 163.943 75.5549 163.857 74.1552L163.815 72.99H163.776C160.641 32.157 126.515 0 84.8789 0C41.1758 0 5.74739 35.4284 5.74739 79.1315C5.74739 80.3692 5.77581 81.6001 5.83201 82.8239L0 246.685C4.21189 245.214 6.62823 242.234 9.04456 239.255C12.4398 235.068 15.835 230.881 24.2114 230.881C32.5879 230.881 35.9831 235.068 39.3783 239.255C42.7735 243.442 46.1688 247.628 54.5452 247.628C62.9216 247.628 66.3168 243.442 69.7121 239.255C73.1073 235.068 76.5025 230.881 84.8789 230.881C93.2554 230.881 96.6506 235.068 100.046 239.255C103.441 243.442 106.836 247.628 115.213 247.628C123.589 247.628 126.984 243.442 130.38 239.255C133.775 235.068 137.17 230.881 145.546 230.881C153.923 230.881 157.318 235.068 160.713 239.255C163.176 242.291 165.638 245.327 170 246.767Z" fill="white"/>
<circle cx="104.556" cy="70.9905" r="10.9905" fill="black"/>
<circle cx="64.9905" cy="70.9905" r="10.9905" fill="black"/>
</svg>
