<svg width="219" height="358" viewBox="0 0 219 358" fill="none" xmlns="http://www.w3.org/2000/svg">
<path fill-rule="evenodd" clip-rule="evenodd" d="M210.399 101.174C210.399 102.327 210.38 103.475 210.342 104.618L218.113 356.919C212.107 355.178 208.833 351.141 205.558 347.103C201.217 341.75 196.876 336.397 186.167 336.397C175.457 336.397 171.116 341.75 166.775 347.103C162.434 352.456 158.093 357.809 147.383 357.809C136.674 357.809 132.333 352.456 127.992 347.103C123.651 341.75 119.31 336.397 108.6 336.397C97.8903 336.397 93.5493 341.75 89.2083 347.103C84.8673 352.456 80.5263 357.809 69.8166 357.809C59.1069 357.809 54.7659 352.456 50.4249 347.103C46.084 341.75 41.743 336.397 31.0332 336.397C20.3235 336.397 15.9825 341.75 11.6416 347.103C8.53734 350.931 5.43312 354.759 0 356.63L8.0046 96.7675H8.14544C10.4523 42.935 54.8248 0 109.225 0C165.102 0 210.399 45.2971 210.399 101.174Z" fill="white"/>
<circle cx="134.639" cy="74.0519" r="14.0519" fill="black"/>
<circle cx="84.0519" cy="74.0519" r="14.0519" fill="black"/>
</svg>
