<svg width="222" height="279" viewBox="0 0 222 279" fill="none" xmlns="http://www.w3.org/2000/svg">
<path fill-rule="evenodd" clip-rule="evenodd" d="M110.789 0C55.9202 0 11.0895 42.9786 8.12555 97.1073H7.96956L0 277.751C5.78498 275.906 9.01934 271.918 12.2537 267.929C16.6653 262.489 21.0769 257.049 31.9608 257.049C42.8447 257.049 47.2563 262.489 51.6679 267.929C56.0794 273.369 60.491 278.81 71.3749 278.81C82.2588 278.81 86.6704 273.369 91.082 267.929C95.4936 262.489 99.9052 257.049 110.789 257.049C121.673 257.049 126.085 262.489 130.496 267.929C134.908 273.369 139.319 278.81 150.203 278.81C161.087 278.81 165.499 273.369 169.91 267.929C174.322 262.489 178.733 257.049 189.617 257.049C200.501 257.049 204.913 262.489 209.324 267.929C212.559 271.918 215.793 275.906 221.578 277.751L213.609 97.1073H213.453C210.489 42.9786 165.658 0 110.789 0Z" fill="white"/>
<circle cx="136.69" cy="74.2805" r="14.2805" fill="black"/>
<circle cx="85.2805" cy="74.2805" r="14.2805" fill="black"/>
</svg>
