<svg width="42" height="42" viewBox="0 0 42 42" fill="none" xmlns="http://www.w3.org/2000/svg">
<circle cx="21" cy="21" r="21" fill="#78699A"/>
<path fill-rule="evenodd" clip-rule="evenodd" d="M19.5633 16.7269C18.227 16.83 16.9991 16.2272 16.2462 15.2324C15.5112 17.385 15.5057 19.7993 16.4013 22.0828C17.5569 25.0292 19.961 27.1157 22.7698 27.9737C22.1417 26.7879 22.1781 25.3018 22.9909 24.1194L24.1624 22.4151C24.6801 21.6621 25.7101 21.4712 26.4631 21.9889L29.8717 24.3319C30.6247 24.8496 30.8155 25.8796 30.2979 26.6326L29.1263 28.3369C28.8595 28.725 28.5322 29.0467 28.1658 29.2982C27.2253 30.3099 26.0655 31.0904 24.7209 31.5502C19.6305 33.2907 13.8192 29.7745 11.7411 23.6967C9.66298 17.6188 12.1049 11.2808 17.1953 9.54032C18.0873 9.23535 19.0014 9.09177 19.9136 9.09508L21.0797 9.00508C22.0076 8.93347 22.8177 9.62756 22.8893 10.5554L23.2135 14.7552C23.2851 15.683 22.591 16.4932 21.6632 16.5648L19.5633 16.7269Z" fill="black"/>
</svg>
