<svg width="228" height="42" viewBox="0 0 228 42" fill="none" xmlns="http://www.w3.org/2000/svg">

    <g>
        <circle cx="21" cy="21" r="21" fill="#78699A"/>
        <path fill-rule="evenodd" clip-rule="evenodd" d="M19.5633 16.7269C18.227 16.83 16.9991 16.2272 16.2462 15.2324C15.5112 17.385 15.5057 19.7993 16.4013 22.0828C17.5569 25.0292 19.961 27.1157 22.7698 27.9737C22.1417 26.7879 22.1781 25.3018 22.9909 24.1194L24.1624 22.4151C24.6801 21.6621 25.7101 21.4712 26.4631 21.9889L29.8717 24.3319C30.6247 24.8496 30.8155 25.8796 30.2979 26.6326L29.1263 28.3369C28.8595 28.725 28.5322 29.0467 28.1658 29.2982C27.2253 30.3099 26.0655 31.0904 24.7209 31.5502C19.6305 33.2907 13.8192 29.7745 11.7411 23.6967C9.66298 17.6188 12.1049 11.2808 17.1953 9.54032C18.0873 9.23535 19.0014 9.09177 19.9136 9.09508L21.0797 9.00508C22.0076 8.93347 22.8177 9.62756 22.8893 10.5554L23.2135 14.7552C23.2851 15.683 22.591 16.4932 21.6632 16.5648L19.5633 16.7269Z" fill="black"/>
    </g>

    <g>
        <circle cx="83" cy="21" r="21" fill="#78699A"/>
        <path fill-rule="evenodd" clip-rule="evenodd" d="M71 14.4687L71 14.458V13.2416C71.0377 13.1852 71.0777 13.1297 71.1201 13.0754C72.0666 11.8601 73.8191 11.6423 75.0343 12.5888L83.2152 18.9608L91.3961 12.5888C92.6113 11.6423 94.3637 11.8601 95.3103 13.0754C95.3526 13.1297 95.3926 13.1852 95.4303 13.2416V14.4575L95.4304 14.4687V26.9998C95.4304 28.6567 94.0872 29.9998 92.4304 29.9998H89.8523V20.8617L83.3048 25.9614L83.2371 26.0483L83.2152 26.0312L83.1932 26.0483L83.1255 25.9614L76.5781 20.8617V29.9998H74C72.3431 29.9998 71 28.6567 71 26.9998V14.4687Z" fill="black"/>
    </g>

    <g>
        <circle cx="145" cy="21" r="21" fill="black"/>
        <mask id="mask0_198_85" style="mask-type:alpha" maskUnits="userSpaceOnUse" x="124" y="0" width="42" height="42">
            <circle cx="145" cy="21" r="21" fill="black"/>
        </mask>
        <g mask="url(#mask0_198_85)">
            <path d="M133.608 11.8081C133.608 11.8081 133.504 9.41977 134.446 8.45347C136.145 6.71143 140.311 10.5501 140.311 10.5501C140.311 10.5501 143.605 9.75475 145.757 9.71146C148.232 9.66166 152.041 10.5501 152.041 10.5501C152.041 10.5501 155.469 7.04983 157.068 8.45347C158.082 9.34383 157.905 12.2275 157.905 12.2275V14.7434C157.905 14.7434 160 17.0168 160 21.0335C160 30.678 150.365 30.678 150.365 30.678C150.365 30.678 151.09 32.5723 151.203 34.0327C151.622 39.4841 151.622 42 151.622 42H139.892V37.3874C139.892 37.3874 138.19 37.4854 137.378 37.3874C135.629 37.1764 134.935 37.2897 133.608 36.1294C132.446 35.1131 132.546 33.5041 131.514 32.3554C130.659 31.4043 129 30.2587 129 30.2587C129 30.2587 131.135 29.7478 132.351 30.2587C134.058 30.9757 133.989 32.9144 135.703 33.6134C137.369 34.2931 139.892 34.0328 139.892 34.0328C139.892 34.0328 140.08 32.9897 140.311 32.3554C140.562 31.6674 141.149 30.678 141.149 30.678C141.149 30.678 131.514 30.678 131.514 21.0335C131.514 17.0593 133.608 14.7434 133.608 14.7434V11.8081Z" fill="#78699A"/>
            <path d="M139 33.5V35.5" stroke="black" stroke-linecap="round"/>
            <path d="M137 33V35" stroke="black" stroke-linecap="round"/>
            <path d="M135 32V34" stroke="black" stroke-linecap="round"/>
        </g>
    </g>
    <g>
        <circle cx="207" cy="21" r="21" fill="#78699A"/>
        <path d="M197 9C197 8.44772 197.448 8 198 8H216C216.552 8 217 8.44772 217 9V30C217 32.2091 215.209 34 213 34H198C197.448 34 197 33.5523 197 33V9Z" fill="black"/>
        <path d="M200.4 12L213.4 12" stroke="#78699A" stroke-width="2" stroke-linecap="round"/>
        <path d="M200.4 17L213.4 17" stroke="#78699A" stroke-width="2" stroke-linecap="round"/>
        <path d="M200.4 22L213.4 22" stroke="#78699A" stroke-width="2" stroke-linecap="round"/>
        <path d="M200.4 27L213.4 27" stroke="#78699A" stroke-width="2" stroke-linecap="round"/>
    </g>

</svg>
