<svg width="39" height="49" viewBox="0 0 39 49" fill="none" xmlns="http://www.w3.org/2000/svg">
<path fill-rule="evenodd" clip-rule="evenodd" d="M19.3952 0C9.78962 0 1.94137 7.52401 1.42249 17H1.39518L0 48.6242C1.01274 48.3012 1.57896 47.603 2.14518 46.9048C2.91749 45.9524 3.6898 45 5.59518 45C7.50057 45 8.27288 45.9524 9.04518 46.9048C9.81749 47.8571 10.5898 48.8095 12.4952 48.8095C14.4006 48.8095 15.1729 47.8571 15.9452 46.9048C16.7175 45.9524 17.4898 45 19.3952 45C21.3006 45 22.0729 45.9524 22.8452 46.9048C23.6175 47.8571 24.3898 48.8095 26.2952 48.8095C28.2006 48.8095 28.9729 47.8571 29.7452 46.9048C30.5175 45.9524 31.2898 45 33.1952 45C35.1006 45 35.8729 45.9524 36.6452 46.9048C37.2114 47.603 37.7776 48.3012 38.7904 48.6242L37.3952 17H37.3679C36.849 7.52401 29.0008 0 19.3952 0Z" fill="white"/>
<circle cx="25.5" cy="13.5" r="2.5" fill="black"/>
<circle cx="16.5" cy="13.5" r="2.5" fill="black"/>
</svg>
