<svg width="243" height="305" viewBox="0 0 243 305" fill="none" xmlns="http://www.w3.org/2000/svg">
<path fill-rule="evenodd" clip-rule="evenodd" d="M121.121 0C61.135 0 12.1236 46.9865 8.88329 106.163H8.71275L0 303.652C6.32446 301.635 9.86044 297.275 13.3964 292.914C18.2194 286.967 23.0424 281.02 34.9412 281.02C46.8401 281.02 51.6631 286.967 56.4861 292.915C61.309 298.862 66.132 304.81 78.0309 304.81C89.9298 304.81 94.7528 298.862 99.5757 292.914C104.399 286.967 109.222 281.02 121.121 281.02C133.019 281.02 137.842 286.967 142.665 292.914C147.488 298.862 152.311 304.81 164.21 304.81C176.109 304.81 180.932 298.862 185.755 292.914C190.578 286.967 195.401 281.02 207.3 281.02C219.199 281.02 224.022 286.967 228.845 292.914C232.381 297.275 235.917 301.635 242.241 303.652L233.528 106.163H233.358C230.117 46.9865 181.106 0 121.121 0Z" fill="white"/>
<circle cx="148.816" cy="75.6122" r="15.6122" fill="black"/>
<circle cx="92.6122" cy="75.6122" r="15.6122" fill="black"/>
</svg>
